<svg xmlns="http://www.w3.org/2000/svg" width="74" height="74" viewBox="0 0 74 74" fill="none">
<path d="M9.24951 37C9.24951 38.2266 9.73678 39.403 10.6041 40.2704C11.4715 41.1377 12.6479 41.625 13.8745 41.625L50.5045 41.625L38.3562 53.7733C37.5392 54.6501 37.0945 55.8097 37.1156 57.0079C37.1367 58.2061 37.6221 59.3493 38.4695 60.1967C39.3169 61.044 40.4601 61.5294 41.6583 61.5506C42.8565 61.5717 44.0161 61.1269 44.8928 60.31L64.9345 40.2683C65.8006 39.4011 66.2871 38.2256 66.2871 37C66.2871 35.7744 65.8006 34.5988 64.9345 33.7317L44.8928 13.69C44.4694 13.2356 43.9588 12.8711 43.3915 12.6183C42.8242 12.3656 42.2117 12.2296 41.5907 12.2187C40.9697 12.2077 40.3529 12.322 39.777 12.5546C39.2011 12.7872 38.678 13.1334 38.2388 13.5726C37.7996 14.0118 37.4534 14.5349 37.2208 15.1108C36.9881 15.6867 36.8739 16.3035 36.8849 16.9245C36.8958 17.5455 37.0317 18.158 37.2845 18.7253C37.5373 19.2926 37.9018 19.8032 38.3562 20.2267L50.5045 32.375L13.8745 32.375C11.3215 32.375 9.24951 34.447 9.24951 37Z" fill="#132D6F"/>
</svg>