<svg width="45" height="45" viewBox="0 0 45 45" fill="none" xmlns="http://www.w3.org/2000/svg">
<path d="M5.62454 22.5C5.62454 23.2459 5.92086 23.9613 6.44831 24.4887C6.97575 25.0162 7.69112 25.3125 8.43704 25.3125L30.712 25.3125L23.3245 32.7C22.8277 33.2331 22.5573 33.9383 22.5701 34.667C22.583 35.3956 22.8782 36.0908 23.3935 36.6061C23.9088 37.1214 24.604 37.4165 25.3326 37.4294C26.0612 37.4423 26.7664 37.1718 27.2995 36.675L39.487 24.4875C40.0137 23.9601 40.3096 23.2453 40.3096 22.5C40.3096 21.7547 40.0137 21.0398 39.487 20.5125L27.2995 8.325C27.0421 8.04867 26.7316 7.82704 26.3866 7.67332C26.0416 7.5196 25.6691 7.43694 25.2915 7.43028C24.9139 7.42362 24.5388 7.49308 24.1886 7.63454C23.8383 7.77599 23.5202 7.98653 23.2531 8.2536C22.9861 8.52067 22.7755 8.8388 22.6341 9.18901C22.4926 9.53921 22.4232 9.91432 22.4298 10.292C22.4365 10.6696 22.5191 11.042 22.6729 11.387C22.8266 11.732 23.0482 12.0425 23.3245 12.3L30.712 19.6875L8.43704 19.6875C6.88454 19.6875 5.62454 20.9475 5.62454 22.5Z" fill="#132D6F"/>
</svg>
