<svg xmlns="http://www.w3.org/2000/svg" width="32" height="32" viewBox="0 0 32 32" fill="none">
<path fill-rule="evenodd" clip-rule="evenodd" d="M17.9998 28V22.6667H13.9998V28H9.33313C8.97951 28 8.64037 27.8595 8.39032 27.6095C8.14027 27.3594 7.9998 27.0203 7.9998 26.6667V18.6667H4.5518C4.28813 18.6666 4.0304 18.5884 3.81119 18.4419C3.59197 18.2953 3.42112 18.0871 3.32023 17.8435C3.21934 17.5999 3.19293 17.3319 3.24435 17.0733C3.29578 16.8147 3.42272 16.5771 3.60913 16.3907L15.0571 4.94266C15.3072 4.6927 15.6462 4.55228 15.9998 4.55228C16.3534 4.55228 16.6924 4.6927 16.9425 4.94266L28.3905 16.3907C28.5769 16.5771 28.7038 16.8147 28.7552 17.0733C28.8067 17.3319 28.7803 17.5999 28.6794 17.8435C28.5785 18.0871 28.4076 18.2953 28.1884 18.4419C27.9692 18.5884 27.7115 18.6666 27.4478 18.6667H23.9998V26.6667C23.9998 27.0203 23.8593 27.3594 23.6093 27.6095C23.3592 27.8595 23.0201 28 22.6665 28H17.9998Z" fill="#747A89"/>
</svg>