<svg xmlns="http://www.w3.org/2000/svg" width="24" height="24" viewBox="0 0 27 27" fill="none">
<path d="M14.625 6.75L20.25 12.375L9.55463 23.0704C9.18452 22.7002 8.97548 22.1988 8.97296 21.6753C8.97043 21.1519 9.17461 20.6485 9.54112 20.2747L9.53775 20.2714C9.16971 20.6475 8.66735 20.862 8.14117 20.8676C7.61499 20.8733 7.10809 20.6698 6.732 20.3017C6.35591 19.9337 6.14142 19.4313 6.13572 18.9052C6.13003 18.379 6.33359 17.8721 6.70162 17.496L6.69262 17.487C6.31705 17.8401 5.8189 18.0332 5.30349 18.0257C4.78808 18.0181 4.29581 17.8104 3.93075 17.4465L14.625 6.75ZM23.1593 6.28425L20.7157 3.84075C20.2938 3.41894 19.7216 3.18198 19.125 3.18198C18.5284 3.18198 17.9562 3.41894 17.5343 3.84075L15.75 5.625L21.375 11.25L23.1593 9.46575C23.5811 9.04381 23.818 8.47161 23.818 7.875C23.818 7.27838 23.5811 6.70618 23.1593 6.28425ZM3.375 20.25V23.625H6.75C6.75 22.7299 6.39442 21.8714 5.76149 21.2385C5.12855 20.6056 4.27011 20.25 3.375 20.25Z" fill="#132D6E"/>
</svg>